<svg width="101" height="100" viewBox="0 0 101 100" fill="none" xmlns="http://www.w3.org/2000/svg">
<path d="M85.6562 18.1689C79.1719 15.193 72.3296 13.0691 65.2999 11.8501C65.2362 11.8394 65.1708 11.8486 65.1126 11.8766C65.0544 11.9046 65.0063 11.9499 64.9749 12.0064C64.0937 13.5689 63.1187 15.6126 62.4374 17.2126C54.86 16.0627 47.1524 16.0627 39.5749 17.2126C38.815 15.4302 37.9553 13.692 36.9999 12.0064C36.9679 11.9505 36.9196 11.9057 36.8616 11.8779C36.8036 11.85 36.7385 11.8403 36.6749 11.8501C29.6441 13.0641 22.8011 15.1882 16.3187 18.1689C16.2632 18.19 16.2168 18.2298 16.1874 18.2814C3.22491 37.6501 -0.331339 56.5439 1.41241 75.2001C1.41866 75.2876 1.47491 75.3751 1.54366 75.4314C9.092 81.0226 17.5349 85.2916 26.5124 88.0564C26.5758 88.0764 26.6439 88.0756 26.7068 88.0543C26.7698 88.0329 26.8243 87.992 26.8624 87.9376C28.7874 85.3126 30.4999 82.5439 31.9749 79.6314C31.9953 79.5916 32.0069 79.548 32.009 79.5034C32.011 79.4588 32.0035 79.4142 31.9869 79.3728C31.9704 79.3313 31.9451 79.2939 31.9128 79.263C31.8806 79.2322 31.8421 79.2086 31.7999 79.1939C29.1072 78.1589 26.4993 76.9156 23.9999 75.4751C23.9543 75.4487 23.9159 75.4114 23.8882 75.3665C23.8605 75.3216 23.8444 75.2705 23.8413 75.2179C23.8382 75.1652 23.8482 75.1126 23.8704 75.0648C23.8927 75.017 23.9264 74.9754 23.9687 74.9439C24.4937 74.5501 25.0187 74.1376 25.5187 73.7251C25.5628 73.6896 25.6158 73.6668 25.672 73.6591C25.7281 73.6513 25.7853 73.6591 25.8374 73.6814C42.2062 81.1564 59.9249 81.1564 76.0937 73.6814C76.1475 73.6573 76.207 73.6486 76.2655 73.6563C76.324 73.6641 76.3792 73.6879 76.4249 73.7251C76.9249 74.1376 77.4499 74.5501 77.9749 74.9439C78.0175 74.9749 78.0516 75.0161 78.0744 75.0636C78.0971 75.1111 78.1077 75.1636 78.1052 75.2162C78.1028 75.2688 78.0873 75.32 78.0602 75.3652C78.0331 75.4104 77.9952 75.4482 77.9499 75.4751C75.4561 76.9286 72.8449 78.1704 70.1437 79.1876C70.1019 79.2037 70.0639 79.2284 70.0323 79.2601C70.0007 79.2919 69.9761 79.3299 69.9602 79.3718C69.9443 79.4137 69.9373 79.4584 69.9399 79.5031C69.9424 79.5479 69.9544 79.5916 69.9749 79.6314C71.4749 82.5376 73.1937 85.3126 75.0812 87.9376C75.1193 87.992 75.1738 88.0329 75.2367 88.0543C75.2997 88.0756 75.3678 88.0764 75.4312 88.0564C84.4237 85.3003 92.8804 81.0307 100.437 75.4314C100.475 75.4048 100.506 75.3704 100.529 75.3304C100.552 75.2904 100.565 75.2459 100.569 75.2001C102.656 53.6314 97.0749 34.8939 85.7812 18.2876C85.7698 18.2602 85.7528 18.2354 85.7312 18.215C85.7097 18.1945 85.6841 18.1788 85.6562 18.1689V18.1689ZM34.4187 63.8376C29.4874 63.8376 25.4312 59.3126 25.4312 53.7626C25.4312 48.2064 29.4124 43.6814 34.4187 43.6814C39.4624 43.6814 43.4812 48.2439 43.4062 53.7626C43.4062 59.3126 39.4249 63.8376 34.4187 63.8376ZM67.6437 63.8376C62.7187 63.8376 58.6562 59.3126 58.6562 53.7626C58.6562 48.2064 62.6374 43.6814 67.6437 43.6814C72.6874 43.6814 76.7124 48.2439 76.6312 53.7626C76.6312 59.3126 72.6874 63.8376 67.6437 63.8376Z" fill="white"/>
</svg>
