<svg width="100" height="100" viewBox="0 0 100 100" fill="none" xmlns="http://www.w3.org/2000/svg">
<path d="M54.4194 9.37529C51.9786 6.93452 48.0214 6.93451 45.5806 9.37529L4.04029 50.9156C2.8199 52.136 2.8199 54.1146 4.04029 55.335C5.26068 56.5554 7.23932 56.5554 8.45971 55.335L50 13.7947L91.5403 55.335C92.7607 56.5554 94.7393 56.5554 95.9597 55.335C97.1801 54.1146 97.1801 52.136 95.9597 50.9156L81.25 36.2059V15.6253C81.25 13.8994 79.8509 12.5003 78.125 12.5003H71.875C70.1491 12.5003 68.75 13.8994 68.75 15.6253V23.7059L54.4194 9.37529Z" fill="white"/>
<path d="M50 20.5809L87.5 58.0809V84.3753C87.5 89.553 83.3027 93.7503 78.125 93.7503H21.875C16.6973 93.7503 12.5 89.553 12.5 84.3753V58.0809L50 20.5809Z" fill="white"/>
</svg>
