<svg width="100" height="100" viewBox="0 0 100 100" fill="none" xmlns="http://www.w3.org/2000/svg">
<path fill-rule="evenodd" clip-rule="evenodd" d="M11.7798 3.19422C16.418 -1.44399 24.0718 -0.967482 28.0989 4.21022L39.3096 18.6239C41.3669 21.269 42.0939 24.713 41.2811 27.9639L37.8607 41.6456C37.4996 43.09 37.9228 44.618 38.9756 45.6708L54.3293 61.0244C55.382 62.0772 56.91 62.5004 58.3544 62.1393L72.0361 58.7189C75.287 57.9062 78.731 58.6331 81.3761 60.6904L95.7898 71.9011C100.967 75.9282 101.444 83.582 96.8058 88.2202L90.3438 94.6822C85.7205 99.3055 78.8055 101.336 72.3609 99.0698C56.3596 93.4441 41.3399 84.2338 28.5531 71.4469C15.7662 58.6601 6.55593 43.6404 0.930238 27.6391C-1.33551 21.1945 0.694563 14.2795 5.31781 9.65624L11.7798 3.19422Z" fill="white"/>
</svg>
