<svg width="100" height="100" viewBox="0 0 100 100" fill="none" xmlns="http://www.w3.org/2000/svg">
<path d="M100 50C100 77.6142 77.6142 100 50 100C22.3858 100 0 77.6142 0 50C0 22.3858 22.3858 0 50 0C77.6142 0 100 22.3858 100 50ZM51.792 36.9124C46.9288 38.9352 37.2092 43.1219 22.6331 49.4724C20.2662 50.4136 19.0263 51.3344 18.9135 52.2348C18.7227 53.7564 20.6282 54.3556 23.2231 55.1715C23.576 55.2825 23.9417 55.3975 24.3167 55.5194C26.8696 56.3492 30.3037 57.3201 32.089 57.3586C33.7084 57.3936 35.5158 56.726 37.5113 55.3558C51.1301 46.1627 58.1602 41.5161 58.6015 41.4159C58.9129 41.3453 59.3444 41.2564 59.6368 41.5162C59.9291 41.7761 59.9004 42.2682 59.8694 42.4002C59.6807 43.205 52.2008 50.1589 48.3299 53.7576C47.1232 54.8795 46.2672 55.6753 46.0922 55.857C45.7003 56.2641 45.3008 56.6492 44.9168 57.0194C42.5451 59.3057 40.7665 61.0203 45.0153 63.8201C47.0571 65.1656 48.6909 66.2782 50.3209 67.3883C52.101 68.6005 53.8765 69.8096 56.1736 71.3154C56.7589 71.6991 57.3179 72.0975 57.8623 72.4857C59.9339 73.9625 61.795 75.2894 64.0944 75.0778C65.4304 74.9548 66.8105 73.6985 67.5114 69.9516C69.1678 61.0966 72.4237 41.9105 73.1762 34.0043C73.2421 33.3116 73.1592 32.4251 73.0926 32.036C73.0259 31.6468 72.8868 31.0924 72.3809 30.6819C71.7819 30.1958 70.8571 30.0933 70.4434 30.1006C68.5628 30.1337 65.6776 31.137 51.792 36.9124Z" fill="white"/>
</svg>
