<svg width="100" height="100" viewBox="0 0 100 100" fill="none" xmlns="http://www.w3.org/2000/svg">
<path d="M31.4126 93.75C69.1477 93.75 89.7959 62.4815 89.7959 35.4115C89.7959 34.5319 89.7959 33.6522 89.7559 32.7725C93.7575 29.8936 97.2389 26.2549 100 22.1364C96.3185 23.7758 92.3569 24.8554 88.1953 25.3752C92.437 22.8562 95.6783 18.8177 97.2389 14.0194C93.2773 16.3786 88.8755 18.0579 84.1937 18.9776C80.4322 14.9791 75.11 12.5 69.2277 12.5C57.9032 12.5 48.6995 21.6966 48.6995 33.0124C48.6995 34.6118 48.8996 36.1713 49.2197 37.6907C32.1729 36.851 17.0468 28.654 6.92277 16.2586C5.16207 19.2975 4.16167 22.8162 4.16167 26.5748C4.16167 33.6922 7.80312 39.9699 13.2853 43.6485C9.92397 43.5285 6.76271 42.6089 4.0016 41.0894C4.0016 41.1694 4.0016 41.2494 4.0016 41.3693C4.0016 51.2857 11.0844 59.6026 20.4482 61.4819C18.7275 61.9617 16.9268 62.2016 15.046 62.2016C13.7255 62.2016 12.445 62.0817 11.2045 61.8418C13.8055 69.9988 21.4086 75.9166 30.3722 76.0765C23.3293 81.5945 14.4858 84.8733 4.88195 84.8733C3.2413 84.8733 1.60064 84.7933 0 84.5934C9.04362 90.3513 19.8479 93.75 31.4126 93.75Z" fill="white"/>
</svg>
