<svg width="100" height="100" viewBox="0 0 100 100" fill="none" xmlns="http://www.w3.org/2000/svg">
<path d="M0 50C0 22.3858 22.3858 0 50 0C77.6142 0 100 22.3858 100 50C100 77.6142 77.6142 100 50 100C22.3858 100 0 77.6142 0 50ZM46.875 6.72846C42.6911 8.00799 38.5289 11.8576 35.0797 18.3249C33.9998 20.3497 33.0187 22.5852 32.1562 25H46.875V6.72846ZM25.5596 25C26.6747 21.5087 28.0203 18.2799 29.565 15.3837C30.6819 13.2894 31.9289 11.3276 33.2954 9.55219C25.5074 12.7721 18.8518 18.1758 14.0918 25H25.5596ZM21.9278 46.875C22.1137 41.3948 22.7856 36.1356 23.875 31.25H10.4602C8.18329 36.0429 6.75222 41.3155 6.35986 46.875H21.9278ZM30.2929 31.25C29.1254 36.0311 28.3845 41.2986 28.1816 46.875H46.875V31.25H30.2929ZM53.125 31.25V46.875H71.8183C71.6155 41.2986 70.8746 36.0311 69.7071 31.25H53.125ZM28.1816 53.125C28.3845 58.7013 29.1254 63.9689 30.2929 68.75H46.875V53.125H28.1816ZM53.125 53.125V68.75H69.7071C70.8746 63.9689 71.6155 58.7013 71.8183 53.125H53.125ZM32.1562 75C33.0187 77.4147 33.9998 79.6503 35.0797 81.675C38.5289 88.1423 42.6911 91.9919 46.875 93.2715V75H32.1562ZM33.2954 90.4477C31.9289 88.6724 30.6819 86.7105 29.565 84.6162C28.0203 81.72 26.6747 78.4912 25.5596 75H14.0918C18.8518 81.8241 25.5074 87.2278 33.2954 90.4477ZM23.875 68.75C22.7856 63.8643 22.1137 58.6051 21.9278 53.125H6.35986C6.75222 58.6844 8.18328 63.957 10.4602 68.75H23.875ZM66.7046 90.4477C74.4925 87.2278 81.1481 81.8241 85.9082 75H74.4403C73.3252 78.4912 71.9796 81.72 70.435 84.6162C69.318 86.7105 68.071 88.6724 66.7046 90.4477ZM53.125 75V93.2715C57.3089 91.9919 61.4711 88.1423 64.9203 81.675C66.0002 79.6503 66.9812 77.4147 67.8437 75H53.125ZM76.1249 68.75H89.5398C91.8167 63.957 93.2477 58.6844 93.6401 53.125H78.0721C77.8863 58.6051 77.2144 63.8643 76.1249 68.75ZM93.6401 46.875C93.2477 41.3155 91.8167 36.0429 89.5398 31.25H76.1249C77.2144 36.1356 77.8863 41.3948 78.0721 46.875H93.6401ZM70.435 15.3837C71.9796 18.2799 73.3252 21.5087 74.4403 25H85.9082C81.1481 18.1758 74.4925 12.7721 66.7046 9.55218C68.071 11.3276 69.318 13.2894 70.435 15.3837ZM67.8437 25C66.9812 22.5852 66.0002 20.3497 64.9203 18.3249C61.4711 11.8576 57.3089 8.00799 53.125 6.72846V25H67.8437Z" fill="white"/>
</svg>

