<svg width="100" height="100" viewBox="0 0 100 100" fill="none" xmlns="http://www.w3.org/2000/svg">
<path d="M85.0082 14.5403C75.671 5.15562 63.2215 0 49.9643 0C22.6657 0 0.427654 22.2381 0.403896 49.5367C0.403896 58.2799 2.68472 66.7855 7.00878 74.3169L0 100L26.277 93.11C33.5233 97.0539 41.6725 99.1447 49.9643 99.1447H49.988C77.2866 99.1447 99.5246 76.9066 99.5484 49.5842C99.5246 36.3507 94.369 23.9012 85.0082 14.5403ZM49.9643 90.7579C42.5516 90.7579 35.3052 88.7622 28.9855 85.0083L27.4887 84.1055L11.903 88.192L16.0608 72.9865L15.0867 71.4184C10.9527 64.861 8.79067 57.282 8.79067 49.5129C8.79067 26.8472 27.2748 8.36303 49.988 8.36303C60.9882 8.36303 71.3232 12.6633 79.116 20.4324C86.8851 28.2252 91.1616 38.5602 91.1616 49.5605C91.1379 72.2975 72.6537 90.7579 49.9643 90.7579ZM72.5587 59.9192C71.3232 59.3015 65.241 56.3079 64.1006 55.8803C62.9602 55.4764 62.1287 55.2625 61.3209 56.498C60.4893 57.7334 58.1135 60.5369 57.4007 61.3447C56.6879 62.1763 55.9514 62.2713 54.716 61.6536C53.4805 61.0359 49.4891 59.7292 44.7611 55.5001C41.0786 52.2214 38.6077 48.1587 37.8712 46.9233C37.1584 45.6878 37.7999 45.0226 38.4176 44.4048C38.964 43.8584 39.653 42.9556 40.2708 42.2428C40.8885 41.5301 41.1023 41.0074 41.5062 40.1758C41.9101 39.3443 41.72 38.6315 41.4112 38.0138C41.1023 37.3961 38.6314 31.2901 37.5861 28.8192C36.5882 26.3958 35.5666 26.7284 34.8063 26.7047C34.0935 26.6572 33.262 26.6572 32.4304 26.6572C31.5989 26.6572 30.2684 26.966 29.128 28.2015C27.9876 29.4369 24.8039 32.4305 24.8039 38.5365C24.8039 44.6424 29.2468 50.5108 29.8645 51.3424C30.4822 52.1739 38.5839 64.6709 51.0096 70.0404C53.9557 71.3234 56.2603 72.0836 58.0659 72.6538C61.0358 73.6042 63.7205 73.4616 65.8588 73.1528C68.2346 72.7964 73.1764 70.1592 74.2218 67.2606C75.2434 64.3621 75.2434 61.8912 74.9345 61.3685C74.6257 60.8458 73.7941 60.537 72.5587 59.9192Z" fill="white"/>
</svg>
